<svg width="18" height="18" viewBox="0 0 18 18" fill="none" xmlns="http://www.w3.org/2000/svg">
<path d="M9 0.25C4.16797 0.25 0.25 4.16797 0.25 9C0.25 13.832 4.16797 17.75 9 17.75C13.832 17.75 17.75 13.832 17.75 9C17.75 4.16797 13.832 0.25 9 0.25ZM9.78906 13.0117C9.76953 13.707 9.25391 14.1367 8.58594 14.1172C7.94531 14.0977 7.44141 13.6406 7.46094 12.9414C7.48047 12.2461 8.01172 11.8047 8.65234 11.8242C9.32422 11.8438 9.8125 12.3164 9.78906 13.0117ZM11.6914 8.03906C11.5273 8.26953 11.1602 8.56641 10.6992 8.92578L10.1875 9.27734C9.9375 9.46875 9.78125 9.69531 9.69922 9.95312C9.65625 10.0898 9.625 10.4453 9.61719 10.6836C9.61328 10.7305 9.58594 10.8359 9.44141 10.8359C9.29687 10.8359 8.07422 10.8359 7.91406 10.8359C7.75391 10.8359 7.73438 10.7422 7.73828 10.6953C7.76172 10.0469 7.85547 9.51172 8.125 9.08203C8.48828 8.50391 9.51172 7.89453 9.51172 7.89453C9.66797 7.77734 9.78906 7.65234 9.88281 7.51562C10.0547 7.28125 10.1953 7.01953 10.1953 6.73828C10.1953 6.41406 10.1172 6.10547 9.91016 5.84766C9.66797 5.54688 9.40625 5.40234 8.90234 5.40234C8.40625 5.40234 8.11719 5.65234 7.91016 5.98047C7.70312 6.30859 7.73828 6.69531 7.73828 7.04688H5.83594C5.83594 5.71875 6.18359 4.87109 6.91797 4.37109C7.41406 4.03125 8.04688 3.88281 8.78516 3.88281C9.75391 3.88281 10.5234 4.0625 11.2031 4.57812C11.832 5.05469 12.1641 5.72656 12.1641 6.63281C12.1641 7.19141 11.9688 7.66016 11.6914 8.03906Z" fill="#5E49D9"/>
</svg>
