<svg width="20" height="20" viewBox="0 0 20 20" fill="none" xmlns="http://www.w3.org/2000/svg">
<path d="M9.1 11.8H1.9V17.2C1.9 17.6774 2.08964 18.1352 2.42721 18.4728C2.76477 18.8104 3.22261 19 3.7 19H16.3C16.7774 19 17.2352 18.8104 17.5728 18.4728C17.9104 18.1352 18.1 17.6774 18.1 17.2V11.8H10.9V13.6H9.1V11.8ZM9.1 10.9H1V5.5C1 4.51 1.81 3.7 2.8 3.7H6.4V2.8C6.4 2.32261 6.58964 1.86477 6.92721 1.52721C7.26477 1.18964 7.72261 1 8.2 1H11.8C12.2774 1 12.7352 1.18964 13.0728 1.52721C13.4104 1.86477 13.6 2.32261 13.6 2.8V3.7H17.2C17.6774 3.7 18.1352 3.88964 18.4728 4.22721C18.8104 4.56477 19 5.02261 19 5.5V10.9H10.9V9.1H9.1V10.9ZM11.8 3.7V2.8H8.2V3.7H11.8Z" fill="#5E49D9"/>
</svg>
